<?xml version="1.0" encoding="utf-8"?>
<!-- Generator: Adobe Illustrator 24.0.1, SVG Export Plug-In . SVG Version: 6.00 Build 0)  -->
<svg version="1.1" id="Capa_1" xmlns="http://www.w3.org/2000/svg" xmlns:xlink="http://www.w3.org/1999/xlink" x="0px" y="0px"
	 viewBox="0 0 370 370" style="enable-background:new 0 0 370 370;" xml:space="preserve">
<style type="text/css">
	.st0{fill:#FFFFFF;}
</style>
<g>
	<g>
		<g>
			<path d="M248,98.8c-2-4.9-4.9-9.4-8.5-13.6c-3.7-4.2-7.7-7.8-12.2-11c-4.5-3.1-9.2-5.6-14.3-7.5c-5.1-1.8-10.2-2.7-15.2-2.7
				c-8.9,0-16.9,2.9-23.9,8.8c-7,5.9-12.9,14.2-17.7,24.8c-4.8,10.7-8.4,23.5-10.8,38.4c-2.4,14.9-3.7,31.5-3.7,49.8
				c0,17.9,1.2,34.4,3.7,49.7c2.4,15.2,5.9,28.4,10.5,39.6c4.6,11.2,10.1,20,16.6,26.4c6.5,6.4,13.9,9.6,22.2,9.6
				c4.7,0,9.4-1,14.2-2.9c4.8-1.9,9.3-4.5,13.7-7.8c4.4-3.2,8.5-7,12.5-11.1c4-4.2,7.5-8.5,10.5-13h13.1
				c-7.9,15.4-18.3,26.7-31.2,33.7c-12.9,7-27.6,10.5-44,10.5c-13.4,0-25-2.5-34.7-7.5c-9.8-5-17.7-13-23.9-23.9
				c-6.2-11-10.8-25.1-13.7-42.5c-2.9-17.4-4.4-38.4-4.4-63.2c0-20.9,1.7-39.4,5.2-55.3c3.5-15.9,9-29.4,16.8-40.2
				c7.7-10.9,17.7-19.1,29.9-24.7c12.2-5.6,27-8.4,44.5-8.4c13,0,24.4,3.6,34.1,10.7c9.8,7.1,17.9,17.1,24.4,29.9L248,98.8z"/>
		</g>
		<g>
			<path d="M221.2,117.4c3.7,0,7.3,0.9,10.7,2.7c3.4,1.8,6.4,4.1,9,7.1c2.6,2.9,4.7,6.2,6.3,9.8c1.5,3.6,2.3,7.2,2.3,10.7v22.4
				c0,5-1.2,9.6-3.7,13.7c-2.4,4.1-5.8,7.6-9.9,10.5c-4.2,2.9-9.1,5.1-14.9,6.7c-5.7,1.6-11.9,2.4-18.4,2.4H192v65.5h-19.7V117.4
				H221.2z M192,199h14c2.6,0,5.3-0.9,8.1-2.7c2.8-1.8,5.4-4,7.7-6.6c2.3-2.6,4.2-5.5,5.6-8.6c1.4-3.1,2.1-5.9,2.1-8.4v-22.4
				c0-3.6-0.7-7.1-2.1-10.5c-1.4-3.4-3.4-6.4-5.8-9.1c-2.4-2.7-5.3-4.9-8.6-6.5c-3.3-1.7-6.8-2.5-10.5-2.5H192V199z"/>
		</g>
	</g>
</g>
</svg>
