<?xml version="1.0" encoding="utf-8"?>
<!-- Generator: Adobe Illustrator 24.0.1, SVG Export Plug-In . SVG Version: 6.00 Build 0)  -->
<svg version="1.1" id="Capa_1" xmlns="http://www.w3.org/2000/svg" xmlns:xlink="http://www.w3.org/1999/xlink" x="0px" y="0px"
	 viewBox="0 0 967.7 501.1" style="enable-background:new 0 0 967.7 501.1;" xml:space="preserve">
<style type="text/css">
	.st0{fill:#FFFFFF;}
</style>
<g>
	<rect x="53.5" y="247.3" width="862.7" height="186"/>
	<g>
		<path d="M137.7,120.2c0-2.8-0.1-5.3-0.4-7.6c-0.3-2.3-0.9-4.3-1.8-5.9c-0.9-1.6-2.3-2.9-4.2-3.8c-1.9-0.9-4.5-1.4-7.8-1.4
			c-6.3,0-10.6,1.7-13,5c-2.4,3.3-3.6,7.9-3.6,13.8v61.9c0,5.6,1.2,10.1,3.5,13.6c2.3,3.5,6.5,5.2,12.7,5.2c3.5,0,6.2-0.4,8.2-1.3
			c2-0.8,3.4-2.1,4.3-3.7c0.9-1.6,1.5-3.6,1.8-5.9c0.3-2.3,0.4-4.9,0.4-7.8h23.4c0,6.3-0.7,12-2,17.2c-1.3,5.2-3.5,9.6-6.6,13.3
			c-3.1,3.7-7,6.6-11.8,8.6c-4.8,2-10.7,3-17.7,3c-6.3,0-11.9-1-16.7-3.1c-4.9-2.1-9-5-12.4-8.8c-3.4-3.8-6-8.2-7.7-13.4
			c-1.7-5.2-2.6-10.7-2.6-16.7v-62.3c0-6.1,0.9-11.8,2.7-16.9c1.8-5.2,4.4-9.6,7.8-13.3c3.4-3.7,7.6-6.6,12.6-8.7
			c4.9-2.1,10.6-3.1,16.8-3.1c6.8,0,12.7,1,17.5,3.1c4.8,2.1,8.7,5,11.7,8.8c3,3.8,5.2,8.2,6.5,13.3c1.3,5.1,2,10.7,2,16.8H137.7z"
			/>
		<path d="M180.4,224.6V78.1h62.3v23.4h-38.9V147h26.8v23.4h-26.8v30.8h38.9v23.4H180.4z"/>
		<path d="M285.4,78.1l31.6,81.4V78.1h23.4v146.4H317l-31.6-81.4v81.4H262V78.1H285.4z"/>
		<path d="M359.7,78.1h81.2v23.4h-29.3v123h-23.4v-123h-28.5V78.1z"/>
		<path d="M460.1,224.6V78.1h24.7c7.4,0,14.2,1.2,20.4,3.7c6.2,2.4,11.5,5.9,16,10.4c4.5,4.5,7.9,9.8,10.4,16
			c2.4,6.2,3.7,13,3.7,20.4c0,5.2-0.6,10.1-1.8,14.9c-1.2,4.7-3,9.1-5.4,13.2c-2.4,4-5.4,7.7-8.9,10.9c-3.5,3.2-7.5,5.9-12.1,7.9
			l25.7,49.2h-26.6l-22.6-43.3v43.3H460.1z M483.5,156.2c8.8,0,15.7-2.3,20.7-6.9c5-4.6,7.5-11.5,7.5-20.7c0-9.3-2.6-16.1-7.8-20.3
			c-5.2-4.2-12-6.5-20.4-6.9V156.2z"/>
		<path d="M554.4,120.2c0-6.3,1-12,3.1-17.2c2.1-5.2,5-9.6,8.8-13.3c3.8-3.7,8.2-6.6,13.4-8.6c5.2-2,10.9-3,17.2-3
			c6.1,0,11.8,1,16.9,3.1c5.2,2.1,9.6,5,13.3,8.7c3.7,3.7,6.6,8.1,8.7,13.3c2.1,5.2,3.1,10.8,3.1,16.9v62.3c0,6.3-1,12-3.1,17.2
			c-2.1,5.2-5,9.6-8.8,13.3c-3.8,3.7-8.2,6.6-13.4,8.6c-5.2,2-10.9,3-17.2,3c-6.1,0-11.8-1-16.9-3.1c-5.2-2.1-9.6-5-13.3-8.7
			c-3.7-3.7-6.6-8.1-8.7-13.3c-2.1-5.2-3.1-10.8-3.1-16.9V120.2z M577.8,182.3c0,5.9,1.6,10.5,4.8,13.8c3.2,3.3,7.8,5,13.8,5
			c6.1,0,10.8-1.6,14.1-4.8c3.3-3.2,4.9-7.9,4.9-14v-61.9c0-5.9-1.6-10.5-4.8-13.8c-3.2-3.3-7.8-5-13.8-5c-6.1,0-10.8,1.6-14.1,4.8
			c-3.3,3.2-4.9,7.9-4.9,14V182.3z"/>
		<path d="M720.9,224.6V78.1h27.2c7.5,0,14.4,1.3,20.6,3.8c6.2,2.5,11.5,6,16,10.5c4.5,4.5,7.9,9.8,10.5,16
			c2.5,6.2,3.8,13.1,3.8,20.6v44.8c0,7.5-1.3,14.4-3.8,20.6c-2.5,6.2-6,11.5-10.5,16c-4.5,4.5-9.8,7.9-16,10.5
			c-6.2,2.5-13.1,3.8-20.6,3.8H720.9z M744.4,201.1c3.2,0,6.2-0.2,9.1-0.5c2.9-0.3,5.5-1.1,7.9-2.2c2.4-1.1,4.7-2.7,6.7-4.7
			c2-2,3.8-4.8,5.3-8.3c0.8-2,1.4-3.9,1.7-5.9c0.3-2,0.4-3.9,0.4-5.9V129c0-9.3-2.7-16.2-7.9-20.7c-5.3-4.5-12.4-6.7-21.3-6.7h-1.9
			V201.1z"/>
		<path d="M818.2,224.6V78.1h62.3v23.4h-38.9V147h26.8v23.4h-26.8v30.8h38.9v23.4H818.2z"/>
	</g>
	<g>
		<path class="st0" d="M129.9,272.4c3.4,0,6.7,0.8,9.8,2.5s5.9,3.8,8.4,6.5c2.4,2.7,4.4,5.7,5.8,9c1.4,3.3,2.2,6.6,2.2,9.9v20.7
			c0,4.6-1.1,8.9-3.4,12.7c-2.3,3.8-5.3,7-9.2,9.7c-3.9,2.6-8.4,4.7-13.7,6.2c-5.3,1.5-11,2.2-17,2.2H103v60.6H84.8v-140H129.9z
			 M103,347.9h12.9c2.4,0,4.9-0.8,7.5-2.5c2.6-1.7,5-3.7,7.1-6.1c2.2-2.4,3.9-5.1,5.2-7.9c1.3-2.9,2-5.5,2-7.8v-20.7
			c0-3.3-0.7-6.5-2-9.7c-1.3-3.1-3.1-6-5.4-8.4c-2.3-2.5-4.9-4.5-7.9-6c-3-1.5-6.3-2.3-9.7-2.3H103V347.9z"/>
		<path class="st0" d="M189.1,301.1v24.8c2-5.4,3.9-9.9,5.9-13.4c1.9-3.5,3.9-6.3,5.8-8.4c1.9-2,3.8-3.4,5.7-4.2
			c1.9-0.8,3.7-1.2,5.6-1.2c3.9,0,7.1,1.3,9.8,4l-8.8,11.4c-0.8-0.6-1.6-0.9-2.6-1.1c-0.9-0.2-2.3-0.2-4.2-0.2c-1,0-2.4,0.8-4.3,2.3
			c-1.9,1.5-3.8,3.6-5.7,6.3c-1.9,2.6-3.6,5.7-5,9.2c-1.4,3.5-2.2,7.2-2.2,11.2v70.6h-18.2V306.7L189.1,301.1z"/>
		<path class="st0" d="M225.7,355.7c0-8.2,0.7-15.7,2.2-22.7c1.4-6.9,3.9-13,7.4-18c3.5-5.1,8.3-9,14.2-11.9
			c6-2.9,13.5-4.3,22.5-4.3c11.7,0,20.5,4.9,26.3,14.7c5.8,9.8,8.8,24,8.8,42.5c0,10.9-1,20.2-3.1,27.7c-2,7.6-5,13.6-8.9,18.3
			c-3.9,4.6-8.7,8-14.4,10.1c-5.7,2.1-12.2,3.1-19.4,3.1c-12.5,0-21.5-4.9-27.1-14.6C228.5,391,225.7,376,225.7,355.7z M262.6,305
			c-3.1,0-5.8,0.8-8.1,2.5c-2.3,1.7-4.2,4.4-5.8,8.1c-1.5,3.8-2.7,8.7-3.5,14.8c-0.8,6.1-1.2,13.6-1.2,22.6
			c0,18.4,2.1,32.5,6.2,42.1c4.1,9.7,10.4,14.5,18.9,14.5c3.5,0,6.6-0.8,9.2-2.4c2.6-1.6,4.7-4.4,6.4-8.3c1.7-3.9,2.9-9.2,3.7-15.7
			c0.8-6.6,1.2-14.8,1.2-24.7c0-7.7-0.7-14.9-2.1-21.4c-1.4-6.6-3.3-12.2-5.6-17c-2.4-4.7-5.2-8.4-8.5-11.1
			C270.2,306.4,266.6,305,262.6,305z"/>
		<path class="st0" d="M396.4,269.5v142.9h-14.6l-3.8-13.1c-1.1,2.2-2.3,4.3-3.6,6.2c-1.3,1.9-3,3.6-4.9,5c-1.9,1.4-4.2,2.6-6.7,3.4
			c-2.5,0.8-5.5,1.2-8.9,1.2c-5,0-9.4-1.7-13.4-5s-7.4-8-10.2-14c-2.8-6-5-13-6.5-21.1c-1.5-8.1-2.3-16.8-2.3-26.2
			c0-6.6,0.7-13,2.1-19c1.4-6.1,3.4-11.4,6-16c2.6-4.6,5.9-8.2,9.8-11c3.9-2.8,8.3-4.1,13.2-4.1c6.3,0,11.5,1.4,15.7,4.2
			c4.2,2.8,7.4,7.4,9.8,13.8v-41.7L396.4,269.5z M378.1,334.5c0-2.4-0.5-5.3-1.5-8.7c-1-3.4-2.4-6.6-4.1-9.7
			c-1.8-3.1-3.9-5.7-6.3-7.8c-2.4-2.1-5.1-3.1-7.9-3.1c-6.2,0-10.9,3.1-14.1,9.3c-3.2,6.2-4.8,15.4-4.8,27.4
			c0,7.8,0.6,15.7,1.8,23.7c1.2,7.9,2.9,15.1,5,21.4c2.2,6.3,4.7,11.5,7.7,15.6c3,4,6.2,6,9.6,6c1.7,0,3.3-0.8,5-2.5
			c1.7-1.7,3.3-3.7,4.7-6.2c1.4-2.5,2.6-5.1,3.5-7.9c0.9-2.8,1.3-5.3,1.3-7.6V334.5z"/>
		<path class="st0" d="M433.7,300.4v82.4c0,3.4,0.4,6.6,1.2,9.4c0.8,2.9,2,5.4,3.6,7.5c1.6,2.2,3.5,3.8,5.6,5
			c2.2,1.2,4.5,1.8,7.2,1.8c2.5,0,4.9-0.6,6.9-1.7c2.1-1.2,3.9-2.7,5.4-4.7c1.5-2,2.6-4.3,3.5-6.9c0.8-2.6,1.2-5.3,1.2-8.2v-78.9
			l18.4-5.8v112h-14.6l-3.8-14.4c-1.4,4.6-4.4,8.3-8.9,11.1c-4.5,2.8-9.6,4.1-15.3,4.1c-4.1,0-7.9-0.7-11.3-2
			c-3.5-1.3-6.5-3.2-9.1-5.7c-2.6-2.5-4.6-5.4-6.1-8.9c-1.5-3.4-2.2-7.3-2.2-11.6v-78.9L433.7,300.4z"/>
		<path class="st0" d="M567,316.9c-1.5-3.9-3.7-6.9-6.5-9.2c-2.8-2.3-6.3-3.4-10.5-3.4c-5.1,0-9.3,1.1-12.8,3.4
			c-3.5,2.3-6.3,5.6-8.4,10c-2.2,4.4-3.7,9.8-4.6,16.3c-0.9,6.5-1.4,13.9-1.4,22.3c0,7.7,0.6,14.8,1.9,21.3c1.3,6.5,3.1,12,5.6,16.7
			c2.5,4.7,5.5,8.4,9.1,11c3.6,2.6,7.7,4,12.5,4c3.2,0,6.3-1.5,9.4-4.5c3.1-3,6.2-6.8,9.4-11.2l4.1,2c-1.8,2.9-3.5,5.5-5.3,7.9
			c-1.8,2.4-3.8,4.5-6.1,6.3c-2.3,1.8-5,3.1-8.2,4.1c-3.1,0.9-7,1.4-11.7,1.4c-6.2,0-11.7-1.4-16.7-4.3c-5-2.9-9.2-6.9-12.6-12
			c-3.4-5.1-6-11.3-7.9-18.4c-1.8-7.1-2.7-15-2.7-23.6c0-19.3,3.9-33.7,11.7-43.3c7.8-9.5,18.9-14.3,33.1-14.3
			c6.3,0,11.4,1.1,15.3,3.4c3.9,2.3,6.9,6.3,8.9,12L567,316.9z"/>
		<path class="st0" d="M653,316.9c-1.5-3.9-3.7-6.9-6.5-9.2c-2.8-2.3-6.3-3.4-10.5-3.4c-5.1,0-9.3,1.1-12.8,3.4
			c-3.5,2.3-6.3,5.6-8.4,10c-2.2,4.4-3.7,9.8-4.6,16.3c-0.9,6.5-1.4,13.9-1.4,22.3c0,7.7,0.6,14.8,1.9,21.3c1.3,6.5,3.1,12,5.6,16.7
			c2.5,4.7,5.5,8.4,9.1,11c3.6,2.6,7.7,4,12.5,4c3.2,0,6.3-1.5,9.4-4.5c3.1-3,6.2-6.8,9.4-11.2l4.1,2c-1.8,2.9-3.5,5.5-5.3,7.9
			c-1.8,2.4-3.8,4.5-6.1,6.3c-2.3,1.8-5,3.1-8.2,4.1c-3.1,0.9-7,1.4-11.7,1.4c-6.2,0-11.7-1.4-16.7-4.3c-5-2.9-9.2-6.9-12.6-12
			c-3.4-5.1-6-11.3-7.9-18.4c-1.8-7.1-2.7-15-2.7-23.6c0-19.3,3.9-33.7,11.7-43.3c7.8-9.5,18.9-14.3,33.1-14.3
			c6.3,0,11.4,1.1,15.3,3.4c3.9,2.3,6.9,6.3,8.9,12L653,316.9z"/>
		<path class="st0" d="M698.2,282.4c0,2.9-1,5.4-3.1,7.5c-2.1,2.2-4.6,3.2-7.4,3.2c-2.9,0-5.4-1.1-7.4-3.2c-2.1-2.2-3.1-4.7-3.1-7.5
			c0-3.1,1-5.7,3.1-7.7c2.1-2,4.6-3.1,7.4-3.1c3.1,0,5.6,1,7.6,3.1C697.2,276.7,698.2,279.3,698.2,282.4z M696.6,301.1v111.2h-18.4
			V306.7L696.6,301.1z"/>
		<path class="st0" d="M714.9,355.7c0-8.2,0.7-15.7,2.2-22.7c1.4-6.9,3.9-13,7.4-18c3.5-5.1,8.3-9,14.2-11.9
			c6-2.9,13.5-4.3,22.5-4.3c11.7,0,20.5,4.9,26.3,14.7c5.8,9.8,8.8,24,8.8,42.5c0,10.9-1,20.2-3.1,27.7c-2,7.6-5,13.6-8.9,18.3
			c-3.9,4.6-8.7,8-14.4,10.1c-5.7,2.1-12.2,3.1-19.4,3.1c-12.5,0-21.5-4.9-27.1-14.6C717.7,391,714.9,376,714.9,355.7z M751.8,305
			c-3.1,0-5.8,0.8-8.1,2.5c-2.3,1.7-4.2,4.4-5.8,8.1c-1.5,3.8-2.7,8.7-3.5,14.8c-0.8,6.1-1.2,13.6-1.2,22.6
			c0,18.4,2.1,32.5,6.2,42.1c4.1,9.7,10.4,14.5,18.9,14.5c3.5,0,6.6-0.8,9.2-2.4c2.6-1.6,4.7-4.4,6.4-8.3c1.7-3.9,2.9-9.2,3.7-15.7
			c0.8-6.6,1.2-14.8,1.2-24.7c0-7.7-0.7-14.9-2.1-21.4c-1.4-6.6-3.3-12.2-5.6-17c-2.4-4.7-5.2-8.4-8.5-11.1
			C759.4,306.4,755.8,305,751.8,305z M770.2,271.1c4.2,0,6.3,1.5,6.3,4.6c0,2.5-1.9,4.3-5.6,5.3L745,288l-2.8-3.8l20-10.8
			c1.5-0.9,3-1.5,4.3-1.7C767.9,271.4,769.1,271.2,770.2,271.1z"/>
		<path class="st0" d="M832.5,301.1v15.7c1.4-5.7,4.3-10.2,8.6-13.3c4.3-3.1,9.5-4.7,15.6-4.7c4.2,0,8,0.7,11.6,2
			c3.5,1.3,6.6,3.2,9.2,5.5c2.6,2.4,4.6,5.3,6,8.7c1.4,3.4,2.2,7.2,2.2,11.3v86.2h-18.4v-83.5c0-6.7-1.6-12.3-4.8-16.7
			c-3.2-4.4-7.5-6.6-12.9-6.6c-2.2,0-4.3,0.6-6.4,1.8c-2,1.2-3.9,2.9-5.5,5c-1.6,2.1-2.9,4.5-3.8,7.1c-0.9,2.6-1.4,5.5-1.4,8.4v84.5
			h-18.2V306.7L832.5,301.1z"/>
	</g>
</g>
</svg>
