<svg id="Capa_1" enable-background="new 0 0 512 512" height="512" viewBox="0 0 512 512" width="512" xmlns="http://www.w3.org/2000/svg"><g><path d="m59.408 125.887-1-3.742c-29.796 40.576-47.408 90.655-47.408 144.855s17.612 104.279 47.408 144.854l1-3.397z" fill="#d8ecfe"/><g><g><path d="m501 267c0-135.31-109.69-245-245-245-4.667 0-9.301.142-13.904.4.659 2.424 1.017 4.97 1.017 7.6v5.18h29.346c2.206 0 4 1.794 4 4v8.504h57.133c2.206 0 4 1.794 4 4v119.008h95.596c1.284 0 2.329 1.044 2.329 2.329v118.907h13.075c2.206 0 4 1.794 4 4v117.296c30.407-40.814 48.408-91.416 48.408-146.224z" fill="#d8ecfe"/></g><path d="m277.592 475c-2.206 0-4-1.794-4-4v-36.837h-189.356l-6.369 1c44.666 47.3 107.942 76.837 178.133 76.837 47.547 0 91.921-13.556 129.491-37z" fill="#fed402"/><g><g><g><path d="m333.592 46.684h-57.133v38.35c0 2.206-1.794 4-4 4h-147.918c-2.206 0-4-1.794-4-4v-38.35h-57.133c-2.761 0-5 2.239-5 5v360.169c5.999 8.17 12.488 15.956 19.432 23.31h195.751v-139.235c0-2.206 1.794-4 4-4h13.076v-118.907c0-1.284 1.044-2.329 2.328-2.329h45.596v-119.008c.001-2.761-2.237-5-4.999-5z" fill="#ca6e59"/><path d="m84.249 414.322c-2.761 0-5-2.239-5-5v-336.797c0-2.761 2.239-5 5-5h15.751v-15.841c0-2.761 2.239-5 5-5h-41.592c-2.761 0-5 2.239-5 5v360.169c5.999 8.17 12.488 15.956 19.432 23.31h22.16v-20.841z" fill="#bb5d4c"/><path d="m312.751 67.525h-36.292v17.508c0 2.206-1.794 4-4 4h-147.918c-2.206 0-4-1.794-4-4v-17.508h-36.292c-2.761 0-5 2.239-5 5v336.797c0 2.761 2.239 5 5 5h189.343v-118.394c0-2.206 1.794-4 4-4h13.076v-118.907c0-1.284 1.044-2.329 2.328-2.329h24.755v-98.167c0-2.761-2.239-5-5-5z" fill="#fff"/><path d="m110.498 409.322v-336.797c0-2.761 2.239-5 5-5h-31.249c-2.761 0-5 2.239-5 5v336.797c0 2.761 2.239 5 5 5h31.249c-2.761 0-5-2.238-5-5z" fill="#f3f0ff"/><g><path d="m244.113 35.18v-5.18c0-16.569-13.431-30-30-30h-31.226c-16.569 0-30 13.431-30 30v5.18z" fill="#fac600"/></g><path d="m214 0h-31.113c-16.569 0-30 13.431-30 30v5.18h31.113v-5.18c0-16.569 13.431-30 30-30z" fill="#e8b800"/><g><path d="m272.459 90.034h-147.918c-2.761 0-5-2.239-5-5v-45.854c0-2.761 2.239-5 5-5h147.918c2.761 0 5 2.239 5 5v45.854c0 2.761-2.239 5-5 5z" fill="#fedf30"/></g><path d="m161.082 85.034v-45.855c0-2.761 2.239-5 5-5h-41.541c-2.761 0-5 2.239-5 5v45.854c0 2.761 2.239 5 5 5h41.541c-2.761.001-5-2.238-5-4.999z" fill="#fed402"/><g><g><g><g><path d="m155.534 164.963h-30.962c-2.473 0-4.477-2.004-4.477-4.477v-30.962c0-2.473 2.004-4.477 4.477-4.477h30.962c2.473 0 4.477 2.004 4.477 4.477v30.962c0 2.472-2.005 4.477-4.477 4.477z" fill="#fed2a4"/></g><g><path d="m143.586 160.243c-1.989 0-3.896-.79-5.304-2.197l-14.53-14.53c-2.929-2.929-2.929-7.678 0-10.606 2.93-2.929 7.678-2.929 10.607 0l9.227 9.227 15.061-15.062c2.93-2.929 7.678-2.929 10.607 0s2.929 7.677 0 10.606l-20.364 20.365c-1.408 1.407-3.315 2.197-5.304 2.197z" fill="#47a920"/></g></g></g><g><path d="m276.905 152.505h-90.034c-4.143 0-7.5-3.358-7.5-7.5s3.357-7.5 7.5-7.5h90.034c4.143 0 7.5 3.358 7.5 7.5s-3.357 7.5-7.5 7.5z" fill="#47a920"/></g></g><g><g><g><g><path d="m155.534 219.372h-30.962c-2.473 0-4.477-2.004-4.477-4.477v-30.962c0-2.473 2.004-4.477 4.477-4.477h30.962c2.473 0 4.477 2.004 4.477 4.477v30.962c0 2.473-2.005 4.477-4.477 4.477z" fill="#fed2a4"/></g><g><path d="m143.586 214.653c-1.919 0-3.839-.732-5.303-2.197l-14.53-14.53c-2.93-2.929-2.93-7.677-.001-10.606 2.93-2.929 7.679-2.93 10.606 0l9.228 9.227 15.061-15.061c2.93-2.929 7.678-2.929 10.607 0s2.929 7.678 0 10.606l-20.364 20.364c-1.465 1.464-3.385 2.197-5.304 2.197z" fill="#47a920"/></g></g></g><g><path d="m276.905 206.915h-90.034c-4.143 0-7.5-3.358-7.5-7.5s3.357-7.5 7.5-7.5h90.034c4.143 0 7.5 3.358 7.5 7.5s-3.357 7.5-7.5 7.5z" fill="#47a920"/></g></g><g><g><g><g><path d="m155.534 273.782h-30.962c-2.473 0-4.477-2.004-4.477-4.477v-30.962c0-2.473 2.004-4.477 4.477-4.477h30.962c2.473 0 4.477 2.004 4.477 4.477v30.962c0 2.473-2.005 4.477-4.477 4.477z" fill="#fed2a4"/></g><g><path d="m143.586 269.063c-1.919 0-3.839-.732-5.303-2.197l-14.53-14.53c-2.93-2.929-2.93-7.677-.001-10.606 2.93-2.929 7.679-2.93 10.606 0l9.228 9.227 15.061-15.062c2.93-2.929 7.678-2.929 10.607 0s2.929 7.678 0 10.606l-20.364 20.365c-1.465 1.465-3.385 2.197-5.304 2.197z" fill="#47a920"/></g></g></g><g><path d="m276.905 261.325h-90.034c-4.143 0-7.5-3.358-7.5-7.5s3.357-7.5 7.5-7.5h90.034c4.143 0 7.5 3.358 7.5 7.5s-3.357 7.5-7.5 7.5z" fill="#47a920"/></g></g><g><g><g><g><path d="m155.534 328.192h-30.962c-2.473 0-4.477-2.004-4.477-4.477v-30.962c0-2.473 2.004-4.477 4.477-4.477h30.962c2.473 0 4.477 2.004 4.477 4.477v30.962c0 2.473-2.005 4.477-4.477 4.477z" fill="#fed2a4"/></g><g><path d="m143.586 323.473c-1.989 0-3.896-.79-5.304-2.197l-14.53-14.53c-2.929-2.929-2.929-7.678 0-10.606 2.93-2.929 7.678-2.929 10.607 0l9.227 9.227 15.061-15.062c2.93-2.929 7.678-2.929 10.607 0s2.929 7.678 0 10.606l-20.364 20.365c-1.408 1.407-3.315 2.197-5.304 2.197z" fill="#47a920"/></g></g></g><path d="m273.592 300.735h-86.721c-4.143 0-7.5 3.358-7.5 7.5s3.357 7.5 7.5 7.5h86.721z" fill="#47a920"/></g><g><g><g><g><path d="m155.534 382.602h-30.962c-2.473 0-4.477-2.004-4.477-4.477v-30.962c0-2.473 2.004-4.477 4.477-4.477h30.962c2.473 0 4.477 2.004 4.477 4.477v30.962c0 2.473-2.005 4.477-4.477 4.477z" fill="#fed2a4"/></g><g><path d="m143.586 377.883c-1.919 0-3.839-.732-5.303-2.197l-14.53-14.53c-2.93-2.929-2.93-7.677-.001-10.606 2.93-2.929 7.679-2.93 10.606 0l9.228 9.227 15.061-15.062c2.93-2.929 7.678-2.929 10.607 0s2.929 7.677 0 10.606l-20.364 20.365c-1.465 1.464-3.385 2.197-5.304 2.197z" fill="#47a920"/></g></g></g><path d="m273.592 355.145h-86.721c-4.143 0-7.5 3.358-7.5 7.5s3.357 7.5 7.5 7.5h86.721z" fill="#47a920"/></g><g><path d="m232.263 66.689h-67.525c-4.143 0-7.5-3.358-7.5-7.5s3.357-7.5 7.5-7.5h67.525c4.143 0 7.5 3.358 7.5 7.5s-3.358 7.5-7.5 7.5z" fill="#e8b800"/></g></g></g><g><g><path d="m436.517 291.928v-118.907c0-1.839-1.49-3.329-3.329-3.329h-140.191c-1.839 0-3.329 1.49-3.329 3.329v118.907z" fill="#fedf30"/></g><path d="m324.329 169.692h-31.333c-1.839 0-3.329 1.49-3.329 3.329v118.907h31.333v-118.907c0-1.838 1.49-3.329 3.329-3.329z" fill="#fed402"/><g><g><path d="m448.592 476h-171c-2.761 0-5-2.239-5-5v-175.072c0-2.761 2.239-5 5-5h171c2.761 0 5 2.239 5 5v175.072c0 2.761-2.238 5-5 5z" fill="#ea9b58"/></g><path d="m303 471v-175.072c0-2.761 2.239-5 5-5h-30.408c-2.761 0-5 2.239-5 5v175.072c0 2.761 2.239 5 5 5h30.408c-2.761 0-5-2.239-5-5z" fill="#d88a55"/><g><path d="m398.549 413.311h-36.451l-.666.918v36.894l.666.974h36.451c1.839 0 3.329-1.49 3.329-3.329v-32.128c0-1.839-1.491-3.329-3.329-3.329z" fill="#fff"/></g><path d="m378.554 448.768v-32.128c0-1.839 1.49-3.329 3.329-3.329h-19.785l-.666.918v36.894l.666.974h19.785c-1.839 0-3.329-1.491-3.329-3.329z" fill="#f3f0ff"/><g><path d="m362.098 452.097h-66.286c-1.839 0-3.329-1.49-3.329-3.329v-32.128c0-1.839 1.49-3.329 3.329-3.329h66.286z" fill="#fed2a4"/></g><path d="m313.385 448.768v-32.128c0-1.839 1.49-3.329 3.329-3.329h-20.902c-1.838 0-3.329 1.49-3.329 3.329v32.128c0 1.838 1.49 3.329 3.329 3.329h20.902c-1.839 0-3.329-1.491-3.329-3.329z" fill="#ffbd86"/><g><path d="m381.642 330.708h-37.1c-1.839 0-3.329-1.49-3.329-3.329v-36.451h43.758v36.451c0 1.839-1.49 3.329-3.329 3.329z" fill="#fe646f"/></g><path d="m362 327.379v-36.451h-20.787v36.451c0 1.839 1.49 3.329 3.329 3.329h20.787c-1.839 0-3.329-1.49-3.329-3.329z" fill="#fd4755"/><g><g><path d="m320.621 405h-20.639c-4.143 0-7.5-3.358-7.5-7.5s3.357-7.5 7.5-7.5h20.639c4.143 0 7.5 3.358 7.5 7.5s-3.358 7.5-7.5 7.5z" fill="#fff"/></g></g><path d="m309 397.5c0-4.142 3.357-7.5 7.5-7.5h-16.518c-4.143 0-7.5 3.358-7.5 7.5s3.357 7.5 7.5 7.5h16.518c-4.143 0-7.5-3.358-7.5-7.5z" fill="#f3f0ff"/></g><g><g><g><path d="m381.642 209.472h-37.1c-1.839 0-3.329-1.49-3.329-3.329v-36.451h43.758v36.451c0 1.839-1.49 3.329-3.329 3.329z" fill="#fe646f"/></g></g></g><path d="m362 206.144v-36.451h-20.787v36.451c0 1.839 1.49 3.329 3.329 3.329h20.787c-1.839-.001-3.329-1.491-3.329-3.329z" fill="#fd4755"/><g><circle cx="315.83" cy="267.35" fill="#fff" r="12.65"/></g><path d="m313.7 267.35c0-5.107 3.033-9.496 7.39-11.494-1.603-.735-3.381-1.156-5.26-1.156-6.986 0-12.65 5.664-12.65 12.65s5.664 12.65 12.65 12.65c1.879 0 3.656-.421 5.26-1.156-4.357-1.998-7.39-6.387-7.39-11.494z" fill="#f3f0ff"/></g></g></g></g></svg>